<svg xmlns="http://www.w3.org/2000/svg" width="367.36" height="367.36" viewBox="0 0 367.36 367.36">
  <g id="noun-correct-171158" transform="translate(-166.32 -96.32)">
    <path id="Path_9" data-name="Path 9" d="M350,96.32c-101.36,0-183.68,82.32-183.68,183.68S248.64,463.68,350,463.68,533.68,381.36,533.68,280,451.36,96.32,350,96.32Zm0,347.76c-90.16,0-164.08-73.359-164.08-164.08,0-90.16,73.359-164.08,164.08-164.08,90.16,0,164.08,73.359,164.08,164.08C514.08,370.16,440.162,444.08,350,444.08ZM407.121,238a9.8,9.8,0,0,1,0,14l-70.559,70.559a12.227,12.227,0,0,1-4.48,2.8c-.559,0-1.68.559-2.238.559h-1.68a11.435,11.435,0,0,1-5.039-2.8l-29.68-29.68a9.9,9.9,0,0,1,14-14L330.405,302.4l63.281-63.281c3.352-5.039,9.512-5.039,13.434-1.117Z" fill="#189f41"/>
  </g>
</svg>
